<svg width="342" height="400" viewBox="0 0 342 400" fill="none" xmlns="http://www.w3.org/2000/svg">
<rect x="5" y="5" width="332" height="390" rx="35" fill="#023047" stroke="white" stroke-width="10"/>
<g filter="url(#filter0_i_1_16)">
<rect x="45" y="44" width="251" height="312" rx="30" fill="white"/>
</g>
<path d="M239.771 306.352C239.771 309.853 238.506 312.783 235.975 315.14C233.479 317.497 230.446 318.676 226.875 318.676C222.369 318.676 218.971 317.237 216.683 314.36C214.395 311.448 213.251 307.704 213.251 303.128C213.251 296.507 215.123 290.977 218.867 286.54C222.646 282.103 227.794 279.884 234.311 279.884C235.629 279.884 236.582 280.057 237.171 280.404C237.795 280.716 238.211 281.201 238.419 281.86C238.627 282.519 238.731 283.351 238.731 284.356C238.731 285.361 238.645 286.159 238.471 286.748C238.298 287.337 238.09 287.788 237.847 288.1C237.605 288.412 237.258 288.637 236.807 288.776C236.218 288.984 235.213 289.088 233.791 289.088C232.37 289.088 230.983 289.331 229.631 289.816C228.314 290.301 227.274 290.891 226.511 291.584C224.986 293.005 224.05 294.288 223.703 295.432L223.443 296.16C224.726 295.571 226.009 295.276 227.291 295.276C230.723 295.276 233.653 296.42 236.079 298.708C238.541 300.961 239.771 303.509 239.771 306.352ZM226.667 310.148C229.337 310.148 230.671 308.987 230.671 306.664C230.671 305.867 230.359 305.121 229.735 304.428C229.146 303.735 228.175 303.388 226.823 303.388C225.506 303.388 224.483 303.717 223.755 304.376C223.062 305 222.715 305.641 222.715 306.3C222.715 306.959 222.75 307.461 222.819 307.808C222.923 308.155 223.097 308.536 223.339 308.952C223.825 309.749 224.934 310.148 226.667 310.148Z" fill="black"/>
<path d="M220.825 181.78L228.729 181.832H233.617C234.449 181.832 235.056 181.867 235.437 181.936C235.818 181.971 236.269 182.127 236.789 182.404C237.725 182.889 238.193 184.276 238.193 186.564C238.193 188.644 237.76 189.909 236.893 190.36C236.408 190.637 235.974 190.811 235.593 190.88C235.246 190.915 234.692 190.932 233.929 190.932H224.829C224.76 191.348 224.586 192.665 224.309 194.884C224.69 194.815 225.297 194.78 226.129 194.78C229.422 194.78 232.386 196.028 235.021 198.524C237.656 200.985 238.973 204.019 238.973 207.624C238.973 211.195 237.725 214.28 235.229 216.88C232.733 219.445 229.63 220.728 225.921 220.728C222.697 220.728 219.785 219.913 217.185 218.284C216.596 217.903 216.162 217.573 215.885 217.296L215.469 216.932C214.152 215.788 213.493 214.748 213.493 213.812C213.493 212.876 214.134 211.749 215.417 210.432C216.457 209.288 217.462 208.716 218.433 208.716C219.404 208.716 220.565 209.271 221.917 210.38C222.541 211.108 223.616 211.472 225.141 211.472C226.701 211.472 227.845 211.143 228.573 210.484C229.336 209.825 229.717 208.924 229.717 207.78C229.717 206.601 229.301 205.683 228.469 205.024C227.672 204.331 226.753 203.984 225.713 203.984C224.673 203.984 223.841 204.296 223.217 204.92C222.281 205.717 221.328 206.116 220.357 206.116C219.421 206.116 218.329 205.787 217.081 205.128C215.868 204.469 215.07 203.949 214.689 203.568C214.308 203.152 214.117 202.719 214.117 202.268C214.117 201.817 214.464 199.027 215.157 193.896C215.85 188.765 216.214 186.096 216.249 185.888C216.284 185.68 216.405 185.316 216.613 184.796C216.821 184.276 217.064 183.808 217.341 183.392C217.653 182.976 218.104 182.612 218.693 182.3C219.317 181.953 220.028 181.78 220.825 181.78Z" fill="black"/>
<path d="M231.133 85.132C231.411 84.6467 231.879 84.3173 232.537 84.144C233.231 83.936 234.115 83.832 235.189 83.832C236.299 83.832 237.183 83.9533 237.841 84.196C238.5 84.404 238.968 84.768 239.245 85.288C239.523 85.7733 239.679 86.224 239.713 86.64C239.783 87.056 239.817 87.6627 239.817 88.46V117.372C239.817 118.724 239.644 119.729 239.297 120.388C238.985 121.012 238.483 121.428 237.789 121.636C237.131 121.844 236.299 121.948 235.293 121.948C234.288 121.948 233.491 121.861 232.901 121.688C232.312 121.515 231.861 121.307 231.549 121.064C231.237 120.821 231.012 120.475 230.873 120.024C230.665 119.435 230.561 118.533 230.561 117.32V110.976H216.469C214.043 110.976 212.604 110.317 212.153 109C211.98 108.445 211.893 107.7 211.893 106.764C211.893 105.828 211.945 105.135 212.049 104.684L216.365 87.264C216.573 86.4667 216.747 85.86 216.885 85.444C217.059 85.028 217.371 84.6293 217.821 84.248C218.307 83.8667 218.913 83.676 219.641 83.676C220.369 83.676 221.167 83.7973 222.033 84.04C224.46 84.6987 225.673 85.808 225.673 87.368C225.673 87.9227 225.552 88.6507 225.309 89.552C225.275 89.6213 225.257 89.6733 225.257 89.708L222.085 102.396H230.561V88.2C230.561 87.4027 230.579 86.8133 230.613 86.432C230.683 86.0507 230.856 85.6173 231.133 85.132Z" fill="black"/>
<path d="M111.248 85.184C112.149 84.2827 113.12 83.832 114.16 83.832C115.235 83.832 116.067 83.9187 116.656 84.092C117.245 84.2653 117.696 84.4733 118.008 84.716C118.32 84.924 118.563 85.288 118.736 85.808C118.909 86.3973 118.996 87.316 118.996 88.564V117.528C118.996 118.325 118.961 118.932 118.892 119.348C118.857 119.729 118.701 120.18 118.424 120.7C117.939 121.636 116.587 122.104 114.368 122.104C112.219 122.104 110.884 121.653 110.364 120.752C110.087 120.232 109.913 119.764 109.844 119.348C109.809 118.897 109.792 118.256 109.792 117.424V98.86L109.116 99.484C107.695 100.559 106.481 101.096 105.476 101.096C104.471 101.096 103.413 100.489 102.304 99.276C101.229 98.0627 100.692 96.988 100.692 96.052C100.692 95.116 101.316 94.0933 102.564 92.984L111.092 85.288L111.248 85.184Z" fill="black"/>
<path d="M110.386 279.312C114.65 279.312 118.012 280.525 120.474 282.952C122.935 285.379 124.166 288.117 124.166 291.168C124.166 294.184 122.814 296.368 120.11 297.72V298.084C120.456 298.257 120.959 298.639 121.618 299.228C122.311 299.783 122.866 300.337 123.282 300.892C124.426 302.348 124.998 304.012 124.998 305.884C124.998 309.593 123.611 312.661 120.838 315.088C118.064 317.48 114.58 318.676 110.386 318.676C106.226 318.676 102.759 317.463 99.9856 315.036C98.9456 314.1 98.027 312.869 97.2296 311.344C96.9523 310.789 96.7616 310.339 96.6576 309.992L96.5536 309.472C96.1723 308.328 95.9816 307.392 95.9816 306.664C95.9816 304.653 97.6803 303.648 101.078 303.648C102.464 303.648 103.383 303.821 103.834 304.168C104.423 304.619 104.943 305.52 105.394 306.872C105.74 307.981 106.694 308.813 108.254 309.368C108.912 309.576 109.64 309.68 110.438 309.68C112.275 309.68 113.627 309.316 114.494 308.588C115.36 307.825 115.794 306.976 115.794 306.04C115.794 305.104 115.36 304.289 114.494 303.596C113.662 302.868 112.656 302.504 111.478 302.504C110.334 302.504 109.554 302.469 109.138 302.4C108.722 302.331 108.271 302.157 107.786 301.88C106.85 301.429 106.382 300.095 106.382 297.876C106.382 295.449 107.023 294.011 108.306 293.56C108.895 293.387 109.796 293.3 111.01 293.3C113.644 293.3 114.962 292.624 114.962 291.272C114.962 290.544 114.615 289.851 113.922 289.192C113.228 288.533 112.258 288.204 111.01 288.204C109.796 288.204 108.826 288.412 108.098 288.828C107.37 289.244 106.919 289.66 106.746 290.076L106.434 290.7C105.636 292.433 104.492 293.3 103.002 293.3C102.135 293.3 101.182 292.988 100.142 292.364C98.4083 291.359 97.5416 290.197 97.5416 288.88C97.5416 288.325 97.9403 287.147 98.7376 285.344C98.8763 285.032 99.2576 284.495 99.8816 283.732C100.506 282.935 101.216 282.241 102.014 281.652C102.846 281.063 103.99 280.525 105.446 280.04C106.936 279.555 108.583 279.312 110.386 279.312Z" fill="black"/>
<path d="M120.968 210.848C122.39 210.848 123.395 211.021 123.984 211.368C124.608 211.68 125.024 212.183 125.232 212.876C125.44 213.535 125.544 214.419 125.544 215.528C125.544 216.603 125.423 217.469 125.18 218.128C124.972 218.787 124.608 219.237 124.088 219.48C123.326 219.896 122.251 220.104 120.864 220.104H100.532C99.2843 220.104 98.2096 219.636 97.3083 218.7C96.4069 217.764 95.9563 216.672 95.9563 215.424C95.9563 213.552 96.5976 211.836 97.8803 210.276C99.1976 208.681 100.775 207.329 102.612 206.22C104.45 205.076 106.287 203.967 108.124 202.892C109.962 201.783 111.522 200.535 112.804 199.148C114.122 197.761 114.78 196.288 114.78 194.728C114.78 194.416 114.659 193.983 114.416 193.428C114.174 192.839 113.896 192.371 113.584 192.024C113.307 191.643 112.856 191.296 112.232 190.984C111.608 190.672 110.742 190.516 109.632 190.516C108.523 190.516 107.552 190.932 106.72 191.764C105.923 192.561 105.472 193.359 105.368 194.156L105.16 195.352V195.664C105.16 196.427 105.126 196.999 105.056 197.38C105.022 197.761 104.866 198.195 104.588 198.68C104.068 199.512 102.716 199.928 100.532 199.928C98.1056 199.928 96.6669 199.269 96.2163 197.952C96.0429 197.397 95.9563 196.513 95.9563 195.3C95.9563 191.695 97.2389 188.471 99.8043 185.628C102.404 182.751 105.784 181.312 109.944 181.312C114.139 181.312 117.536 182.768 120.136 185.68C122.736 188.557 124.036 191.851 124.036 195.56C124.036 197.536 123.603 199.408 122.736 201.176C121.87 202.944 120.83 204.365 119.616 205.44C117.051 207.728 114.763 209.271 112.752 210.068L111.452 210.588V210.848H120.968Z" fill="black"/>
<defs>
<filter id="filter0_i_1_16" x="41" y="40" width="255" height="316" filterUnits="userSpaceOnUse" color-interpolation-filters="sRGB">
<feFlood flood-opacity="0" result="BackgroundImageFix"/>
<feBlend mode="normal" in="SourceGraphic" in2="BackgroundImageFix" result="shape"/>
<feColorMatrix in="SourceAlpha" type="matrix" values="0 0 0 0 0 0 0 0 0 0 0 0 0 0 0 0 0 0 127 0" result="hardAlpha"/>
<feMorphology radius="3" operator="erode" in="SourceAlpha" result="effect1_innerShadow_1_16"/>
<feOffset dx="-4" dy="-4"/>
<feGaussianBlur stdDeviation="6"/>
<feComposite in2="hardAlpha" operator="arithmetic" k2="-1" k3="1"/>
<feColorMatrix type="matrix" values="0 0 0 0 0 0 0 0 0 0 0 0 0 0 0 0 0 0 0.33 0"/>
<feBlend mode="normal" in2="shape" result="effect1_innerShadow_1_16"/>
</filter>
</defs>
</svg>
